<svg width="74" height="16" viewBox="0 0 74 16" fill="none" xmlns="http://www.w3.org/2000/svg">
<path d="M0 15.3628V0.233211H3.25239V2.79854C4.32657 1.07861 6.17655 0 8.38459 0C11.6668 0 13.9644 2.12806 13.9644 5.39303V15.3628H10.712V6.09266C10.712 4.19781 9.48861 2.85685 7.51928 2.85685C4.86366 2.85685 3.25239 5.07236 3.25239 8.7163V15.3628H0Z" fill="black"/>
<path d="M20.7478 15.596C17.6148 15.596 15.4068 13.8178 15.4068 11.2525C15.4068 8.62884 17.3463 6.99636 20.718 6.55909L24.0301 6.12181C24.9252 6.00521 25.3728 5.59709 25.3728 4.8683C25.3728 3.55648 24.1494 2.53618 22.1204 2.53618C20.2406 2.53618 18.868 3.46903 18.7188 5.15981H15.5261C15.8842 2.01145 18.3608 0 22.1204 0C26.0889 0 28.6252 2.21551 28.6252 5.59709V11.6023C28.6252 12.4768 29.0131 12.7975 29.6695 12.7975C29.8486 12.7975 30.0276 12.7684 30.1469 12.7392V15.3628C29.8187 15.4211 29.2518 15.5377 28.6252 15.5377C27.0139 15.5377 25.88 14.7798 25.7607 13.1473C25.0147 14.6632 23.0752 15.596 20.7478 15.596ZM21.2551 13.1182C23.9107 13.1182 25.4623 11.3108 25.4623 8.7163V8.16242L21.2551 8.8329C19.5245 9.09527 18.6592 9.8532 18.6592 11.1359C18.6592 12.3019 19.7035 13.1182 21.2551 13.1182Z" fill="black"/>
<path d="M34.5632 15.3628L28.8939 0.233211H32.2059L36.1446 11.7189L40.1131 0.233211H43.3655L37.726 15.3628H34.5632Z" fill="black"/>
<path d="M46.0742 8.54139C46.3725 11.3108 48.0733 12.885 50.5798 12.885C52.4894 12.885 54.0112 12.0104 54.3692 10.4654H57.5619C57.0248 13.7595 54.1902 15.596 50.4902 15.596C45.5967 15.596 42.8516 11.8938 42.8516 7.78345C42.8516 3.70224 45.4475 0 50.341 0C55.145 0 57.6813 3.49818 57.6515 7.25872C57.6515 7.84175 57.5918 8.54139 57.5918 8.54139H46.0742ZM50.341 2.50703C48.1628 2.50703 46.7008 3.81885 46.2233 6.03436H54.1604C54.0112 3.99375 52.6684 2.50703 50.341 2.50703Z" fill="black"/>
<path d="M66.2122 15.596C61.6469 15.596 58.4244 12.3019 58.4244 7.78345C58.4244 3.29412 61.6469 0 66.2122 0C70.6879 0 74 3.26497 74 7.78345C74 12.3311 70.6879 15.596 66.2122 15.596ZM66.2122 12.8267C68.838 12.8267 70.6581 10.7277 70.6581 7.78345C70.6581 4.83915 68.8081 2.76939 66.2122 2.76939C63.4969 2.76939 61.7364 4.8683 61.7364 7.78345C61.7364 10.7277 63.4969 12.8267 66.2122 12.8267Z" fill="black"/>
</svg>
